<svg width="118" height="26" viewBox="0 0 118 26" fill="none" xmlns="http://www.w3.org/2000/svg">
<path d="M104.867 20.1215V13.1073C104.867 12.0294 105.104 11.0863 105.577 10.2779C106.066 9.46945 106.737 8.84333 107.589 8.39949C108.441 7.9398 109.411 7.70996 110.5 7.70996C111.605 7.70996 112.575 7.9398 113.411 8.39949C114.263 8.84333 114.926 9.46945 115.399 10.2779C115.888 11.0863 116.133 12.0294 116.133 13.1073V20.1215H113.956V13.1311C113.956 12.4019 113.79 11.7758 113.459 11.2527C113.143 10.7138 112.717 10.3016 112.18 10.0163C111.66 9.731 111.1 9.58834 110.5 9.58834C109.9 9.58834 109.332 9.731 108.796 10.0163C108.275 10.3016 107.849 10.7138 107.518 11.2527C107.202 11.7758 107.045 12.4019 107.045 13.1311V20.1215H104.867Z" fill="#111111"/>
<path d="M97.7398 20.1215C96.4145 20.1215 95.239 19.8758 94.2134 19.3844C93.1878 18.8772 92.3831 18.1718 91.7993 17.2683C91.2313 16.3489 90.9473 15.279 90.9473 14.0584C90.9473 12.8537 91.1918 11.7758 91.681 10.8247C92.1701 9.85781 92.8486 9.09695 93.7164 8.54215C94.5842 7.98736 95.594 7.70996 96.7458 7.70996C97.9923 7.70996 99.0258 7.97943 99.8463 8.51838C100.683 9.05732 101.306 9.78648 101.716 10.7059C102.126 11.6094 102.331 12.6239 102.331 13.7493C102.331 13.9237 102.323 14.106 102.308 14.2962C102.308 14.4864 102.292 14.6528 102.26 14.7955H93.2667C93.3456 15.5405 93.5901 16.1746 94.0004 16.6976C94.4106 17.2049 94.9313 17.5932 95.5624 17.8627C96.2093 18.1163 96.9194 18.2431 97.6925 18.2431H100.84V20.1215H97.7398ZM93.243 13.25H100.13C100.13 12.9488 100.099 12.6318 100.036 12.2989C99.9725 11.9502 99.862 11.6173 99.7043 11.3003C99.5465 10.9674 99.3335 10.6742 99.0652 10.4205C98.8128 10.1511 98.4893 9.93707 98.0949 9.77855C97.7162 9.62004 97.2665 9.54079 96.7458 9.54079C96.1936 9.54079 95.7044 9.65175 95.2784 9.87366C94.8682 10.0797 94.5132 10.3651 94.2134 10.7296C93.9136 11.0784 93.6848 11.4746 93.527 11.9185C93.3692 12.3623 93.2746 12.8062 93.243 13.25Z" fill="#111111"/>
<path d="M86.2124 20.1216V7.99537H88.4135V20.1216H86.2124ZM87.3248 6.06944C86.9304 6.06944 86.5832 5.92677 86.2834 5.64145C85.9994 5.34028 85.8574 4.99155 85.8574 4.59526C85.8574 4.19898 85.9994 3.85818 86.2834 3.57286C86.5832 3.27168 86.9304 3.12109 87.3248 3.12109C87.7193 3.12109 88.0585 3.27168 88.3425 3.57286C88.6423 3.85818 88.7922 4.19898 88.7922 4.59526C88.7922 4.99155 88.6423 5.34028 88.3425 5.64145C88.0585 5.92677 87.7193 6.06944 87.3248 6.06944Z" fill="#111111"/>
<path d="M77.4448 7.70996C78.36 7.70996 79.1962 7.86055 79.9536 8.16172C80.7109 8.44705 81.3657 8.87503 81.918 9.44568C82.4702 10.0163 82.8962 10.7059 83.196 11.5143C83.5116 12.3068 83.6694 13.2024 83.6694 14.2011C83.6694 15.4533 83.409 16.5471 82.8883 17.4823C82.3834 18.4175 81.6892 19.1387 80.8056 19.646C79.922 20.1532 78.9201 20.4069 77.7998 20.4069C77.1845 20.4069 76.5928 20.3038 76.0248 20.0977C75.4725 19.8917 74.9755 19.6064 74.5337 19.2418C74.1077 18.8613 73.7606 18.4334 73.4923 17.9578H73.445V25.3525H71.2676V14.1297C71.2676 12.7665 71.5358 11.6094 72.0723 10.6583C72.6245 9.70722 73.3661 8.97806 74.297 8.47082C75.2279 7.96358 76.2772 7.70996 77.4448 7.70996ZM77.4448 9.58834C76.719 9.58834 76.0484 9.77063 75.4331 10.1352C74.8335 10.4998 74.3522 11.015 73.9893 11.6807C73.6422 12.3465 73.4687 13.1311 73.4687 14.0346C73.4687 14.954 73.6422 15.7545 73.9893 16.4361C74.3522 17.1019 74.8335 17.617 75.4331 17.9816C76.0484 18.3462 76.7269 18.5285 77.4685 18.5285C78.2258 18.5285 78.9043 18.3383 79.5039 17.9578C80.1035 17.5774 80.5768 17.0543 80.9239 16.3885C81.2868 15.7228 81.4683 14.9461 81.4683 14.0584C81.4683 13.139 81.2868 12.3465 80.9239 11.6807C80.561 11.015 80.0719 10.4998 79.4565 10.1352C78.857 9.77063 78.1864 9.58834 77.4448 9.58834Z" fill="#111111"/>
<path d="M61.2954 20.4069C60.1278 20.4069 59.118 20.1295 58.266 19.5747C57.414 19.004 56.7592 18.2352 56.3016 17.2683C55.844 16.3014 55.6152 15.2314 55.6152 14.0584C55.6152 12.8696 55.8677 11.7996 56.3726 10.8485C56.8775 9.88159 57.6033 9.12073 58.55 8.56593C59.4967 7.99528 60.6328 7.70996 61.9581 7.70996C63.2362 7.70996 64.3328 7.98736 65.2479 8.54215C66.1631 9.09695 66.8652 9.84989 67.3543 10.801C67.8593 11.752 68.1117 12.8141 68.1117 13.9871V20.1215H65.9106V17.6487H65.8633C65.6266 18.1084 65.3032 18.5522 64.8929 18.9802C64.4985 19.3924 64.0014 19.7332 63.4019 20.0026C62.8023 20.2721 62.1001 20.4069 61.2954 20.4069ZM61.8635 18.5285C62.6524 18.5285 63.3466 18.3383 63.9462 17.9578C64.5616 17.5615 65.0349 17.0226 65.3663 16.341C65.7134 15.6435 65.887 14.8668 65.887 14.0109C65.887 13.1707 65.7213 12.4178 65.3899 11.752C65.0744 11.0863 64.6168 10.5632 64.0172 10.1828C63.4176 9.78648 62.7155 9.58834 61.9108 9.58834C61.0588 9.58834 60.3251 9.78648 59.7097 10.1828C59.1101 10.579 58.6447 11.118 58.3133 11.7996C57.9978 12.4654 57.84 13.2262 57.84 14.0822C57.84 14.9065 57.9978 15.6594 58.3133 16.341C58.6289 17.0067 59.0865 17.5378 59.6861 17.934C60.2856 18.3303 61.0114 18.5285 61.8635 18.5285Z" fill="#111111"/>
<path d="M43.8731 20.1214V18.243H49.6479C50.0266 18.243 50.3501 18.1637 50.6183 18.0052C50.9023 17.8309 51.1153 17.6089 51.2573 17.3395C51.3993 17.07 51.4703 16.7847 51.4703 16.4835C51.4703 16.1982 51.4072 15.9366 51.281 15.6988C51.1548 15.4452 50.9575 15.2471 50.6893 15.1044C50.4369 14.9459 50.1292 14.8667 49.7663 14.8667H47.3285C46.5554 14.8667 45.8769 14.7398 45.2931 14.4862C44.7251 14.2168 44.2754 13.8284 43.9441 13.3212C43.6285 12.8139 43.4707 12.1957 43.4707 11.4666C43.4707 10.8484 43.6206 10.2777 43.9204 9.75461C44.2202 9.23152 44.6383 8.81146 45.1748 8.49443C45.7112 8.16156 46.3266 7.99512 47.0208 7.99512H52.5827V9.8735H47.2338C46.7447 9.8735 46.3581 10.0241 46.0741 10.3253C45.7901 10.6264 45.6481 10.9831 45.6481 11.3952C45.6481 11.7915 45.7901 12.1402 46.0741 12.4414C46.3739 12.7267 46.792 12.8694 47.3285 12.8694H49.6479C50.5157 12.8694 51.2415 13.0121 51.8253 13.2974C52.4249 13.5668 52.8746 13.9631 53.1744 14.4862C53.49 15.0093 53.6477 15.6513 53.6477 16.4122C53.6477 17.0621 53.49 17.6723 53.1744 18.243C52.8588 18.7978 52.417 19.2495 51.849 19.5983C51.2968 19.947 50.6499 20.1214 49.9083 20.1214H43.8731Z" fill="#111111"/>
<path d="M35.1456 20.4069C33.9149 20.4069 32.8262 20.1295 31.8795 19.5747C30.9328 19.004 30.1833 18.2431 29.6311 17.2921C29.0789 16.3251 28.8027 15.2473 28.8027 14.0584C28.8027 12.8696 29.0789 11.7996 29.6311 10.8485C30.1833 9.88159 30.9328 9.12073 31.8795 8.56593C32.8262 7.99528 33.9149 7.70996 35.1456 7.70996C36.3764 7.70996 37.4651 7.99528 38.4118 8.56593C39.3742 9.12073 40.1237 9.87366 40.6602 10.8247C41.2124 11.7758 41.4885 12.8537 41.4885 14.0584C41.4885 15.2473 41.2124 16.3251 40.6602 17.2921C40.1237 18.2431 39.3742 19.004 38.4118 19.5747C37.4651 20.1295 36.3764 20.4069 35.1456 20.4069ZM35.1456 18.5285C35.9819 18.5285 36.7077 18.3303 37.3231 17.934C37.9384 17.5378 38.4196 17.0067 38.7668 16.341C39.1139 15.6594 39.2875 14.8985 39.2875 14.0584C39.2875 13.2183 39.1139 12.4654 38.7668 11.7996C38.4196 11.118 37.9384 10.579 37.3231 10.1828C36.7077 9.78648 35.9819 9.58834 35.1456 9.58834C34.3252 9.58834 33.5994 9.78648 32.9682 10.1828C32.3529 10.579 31.8716 11.118 31.5245 11.7996C31.1774 12.4654 31.0038 13.2183 31.0038 14.0584C31.0038 14.8985 31.1774 15.6594 31.5245 16.341C31.8716 17.0067 32.3529 17.5378 32.9682 17.934C33.5994 18.3303 34.3252 18.5285 35.1456 18.5285Z" fill="#111111"/>
<path d="M22.3375 20.1215C21.0121 20.1215 19.8366 19.8758 18.811 19.3844C17.7854 18.8772 16.9808 18.1718 16.397 17.2683C15.8289 16.3489 15.5449 15.279 15.5449 14.0584C15.5449 12.8537 15.7895 11.7758 16.2786 10.8247C16.7677 9.85781 17.4462 9.09695 18.314 8.54215C19.1818 7.98736 20.1916 7.70996 21.3435 7.70996C22.59 7.70996 23.6234 7.97943 24.4439 8.51838C25.2802 9.05732 25.9034 9.78648 26.3137 10.7059C26.7239 11.6094 26.929 12.6239 26.929 13.7493C26.929 13.9237 26.9211 14.106 26.9053 14.2962C26.9053 14.4864 26.8896 14.6528 26.858 14.7955H17.8643C17.9432 15.5405 18.1878 16.1746 18.598 16.6976C19.0083 17.2049 19.529 17.5932 20.1601 17.8627C20.807 18.1163 21.517 18.2431 22.2902 18.2431H25.438V20.1215H22.3375ZM17.8407 13.25H24.7279C24.7279 12.9488 24.6964 12.6318 24.6333 12.2989C24.5701 11.9502 24.4597 11.6173 24.3019 11.3003C24.1441 10.9674 23.9311 10.6742 23.6629 10.4205C23.4104 10.1511 23.087 9.93707 22.6925 9.77855C22.3138 9.62004 21.8642 9.54079 21.3435 9.54079C20.7912 9.54079 20.3021 9.65175 19.8761 9.87366C19.4658 10.0797 19.1108 10.3651 18.811 10.7296C18.5113 11.0784 18.2825 11.4746 18.1247 11.9185C17.9669 12.3623 17.8722 12.8062 17.8407 13.25Z" fill="#111111"/>
<path d="M1.72656 20.1215V13.1073C1.72656 12.0294 1.96324 11.0863 2.43659 10.2779C2.92572 9.46945 3.5963 8.84333 4.44833 8.39949C5.30036 7.9398 6.27073 7.70996 7.35944 7.70996C8.46392 7.70996 9.43429 7.9398 10.2705 8.39949C11.1226 8.84333 11.7853 9.46945 12.2586 10.2779C12.7477 11.0863 12.9923 12.0294 12.9923 13.1073V20.1215H10.8149V13.1311C10.8149 12.4019 10.6492 11.7758 10.3179 11.2527C10.0023 10.7138 9.5763 10.3016 9.03983 10.0163C8.51915 9.731 7.95902 9.58834 7.35944 9.58834C6.75986 9.58834 6.19184 9.731 5.65538 10.0163C5.13469 10.3016 4.70867 10.7138 4.37733 11.2527C4.06176 11.7758 3.90398 12.4019 3.90398 13.1311V20.1215H1.72656Z" fill="#111111"/>
</svg>
